<svg width="1024" height="1024" viewBox="0 0 1024 1024" fill="none" xmlns="http://www.w3.org/2000/svg">
<path d="M747.4 535.7C747 467.5 777.9 416.1 840.3 378.2C805.4 328.2 752.6 300.7 683 295.4C617.1 290.2 545 333.8 518.6 333.8C490.7 333.8 426.9 297.2 376.7 297.2C273.1 298.8 163 379.8 163 544.6C163 593.3 171.9 643.6 189.7 695.4C213.5 763.6 299.3 930.7 388.8 928C435.6 926.9 468.7 894.8 529.6 894.8C588.7 894.8 619.3 928 671.5 928C761.8 926.7 839.4 774.8 862 706.4C740.9 649.3 747.4 539.2 747.4 535.7V535.7ZM642.3 230.7C693 170.5 688.4 115.7 686.9 96C642.1 98.6 590.3 126.5 560.8 160.8C528.3 197.6 509.2 243.1 513.3 294.4C561.7 298.1 605.9 273.2 642.3 230.7V230.7Z" fill="#6B7280"/>
</svg>
