<svg width="751" height="751" viewBox="0 0 751 751" fill="none" xmlns="http://www.w3.org/2000/svg">
<path fill-rule="evenodd" clip-rule="evenodd" d="M375.5 0C168.036 0 0 168.036 0 375.5C0 541.659 107.487 682.002 256.748 731.756C275.523 735.041 282.564 723.776 282.564 713.919C282.564 705.001 282.094 675.431 282.094 643.982C187.75 661.349 163.342 620.983 155.832 599.861C151.608 589.066 133.302 555.74 117.344 546.822C104.201 539.781 85.4262 522.414 116.874 521.945C146.445 521.476 167.567 549.169 174.607 560.434C208.402 617.228 262.381 601.269 283.972 591.412C287.257 567.005 297.114 550.577 307.91 541.189C224.361 531.802 137.058 499.415 137.058 355.786C137.058 314.951 151.608 281.156 175.546 254.871C171.791 245.483 158.649 206.994 179.301 155.363C179.301 155.363 210.749 145.506 282.564 193.852C312.604 185.403 344.521 181.179 376.439 181.179C408.356 181.179 440.274 185.403 470.314 193.852C542.128 145.037 573.576 155.363 573.576 155.363C594.229 206.994 581.086 245.483 577.331 254.871C601.269 281.156 615.82 314.481 615.82 355.786C615.82 499.884 528.047 531.802 444.498 541.189C458.11 552.924 469.844 575.454 469.844 610.657C469.844 660.88 469.375 701.246 469.375 713.919C469.375 723.776 476.416 735.511 495.191 731.756C569.733 706.588 634.507 658.68 680.395 594.772C726.284 530.865 750.978 454.176 751 375.5C751 168.036 582.964 0 375.5 0Z" fill="#6B7280"/>
</svg>
