<svg width="1289" height="906" viewBox="0 0 1289 906" fill="none" xmlns="http://www.w3.org/2000/svg">
<g filter="url(#filter0_i)">
<path fill-rule="evenodd" clip-rule="evenodd" d="M1257.38 -417.89C1361.29 -322.434 1390.59 -188.06 1443.05 -66.2172C1505.11 77.9025 1613.02 232.111 1590.97 356.871C1568.03 486.652 1464.6 581.824 1328.08 584.161C1197.75 586.391 1062.34 420.58 921.469 368.328C781.625 316.457 647.795 381.498 518.057 283.703C382.034 181.17 268.657 8.79732 253.384 -135.267C238.518 -275.489 393.875 -308.891 443.748 -417.227C489.756 -517.166 423.495 -709.842 531.933 -740.34C641.022 -771.02 784.259 -608.827 916.31 -550.132C1032.53 -498.474 1156.38 -510.677 1257.38 -417.89Z" fill="url(#paint0_linear)"/>
</g>
<defs>
<filter id="filter0_i" x="0.160278" y="-975.135" width="1841.41" height="1880.18" filterUnits="userSpaceOnUse" color-interpolation-filters="sRGB">
<feFlood flood-opacity="0" result="BackgroundImageFix"/>
<feBlend mode="normal" in="SourceGraphic" in2="BackgroundImageFix" result="shape"/>
<feColorMatrix in="SourceAlpha" type="matrix" values="0 0 0 0 0 0 0 0 0 0 0 0 0 0 0 0 0 0 127 0" result="hardAlpha"/>
<feOffset dy="-18"/>
<feGaussianBlur stdDeviation="22"/>
<feComposite in2="hardAlpha" operator="arithmetic" k2="-1" k3="1"/>
<feColorMatrix type="matrix" values="0 0 0 0 0 0 0 0 0 0 0 0 0 0 0 0 0 0 0.3 0"/>
<feBlend mode="normal" in2="shape" result="effect1_innerShadow"/>
</filter>
<linearGradient id="paint0_linear" x1="371.487" y1="-600.895" x2="1466.18" y2="552.667" gradientUnits="userSpaceOnUse">
<stop offset="0.12" stop-color="#F51D7E"/>
<stop offset="0.88" stop-color="#3E16BB"/>
</linearGradient>
</defs>
</svg>
