<svg width="1440" height="945" viewBox="0 0 1440 945" fill="none" xmlns="http://www.w3.org/2000/svg">
<g filter="url(#filter0_i)">
<path fill-rule="evenodd" clip-rule="evenodd" d="M743.535 375.968C559.753 274.569 524.448 96.5133 407.291 -46.9768C294.643 -184.943 114.87 -315.354 68.2003 -451.157C19.2363 -593.636 33.3959 -736.03 149.714 -796.491C263.172 -855.467 512.278 -730.194 657.319 -757.379C841.745 -791.947 849.141 -1050.17 1087.63 -972.289C1317.67 -897.169 1343.61 -623.737 1537.49 -469.952C1739.52 -309.701 2110.91 -264.554 2209.82 -82.1673C2307.9 98.6902 1984 108.93 1922.92 240.746C1870.27 354.351 2027.91 585.949 1880.67 628.076C1730.93 670.923 1472.41 473.316 1268.27 428.058C1080.51 386.429 928.305 477.912 743.535 375.968Z" fill="url(#paint0_linear)"/>
</g>
<defs>
<filter id="filter0_i" x="-236" y="-1356" width="2637.65" height="2304.54" filterUnits="userSpaceOnUse" color-interpolation-filters="sRGB">
<feFlood flood-opacity="0" result="BackgroundImageFix"/>
<feBlend mode="normal" in="SourceGraphic" in2="BackgroundImageFix" result="shape"/>
<feColorMatrix in="SourceAlpha" type="matrix" values="0 0 0 0 0 0 0 0 0 0 0 0 0 0 0 0 0 0 127 0" result="hardAlpha"/>
<feOffset dy="4"/>
<feGaussianBlur stdDeviation="15"/>
<feComposite in2="hardAlpha" operator="arithmetic" k2="-1" k3="1"/>
<feColorMatrix type="matrix" values="0 0 0 0 0 0 0 0 0 0 0 0 0 0 0 0 0 0 0.5 0"/>
<feBlend mode="normal" in2="shape" result="effect1_innerShadow"/>
</filter>
<linearGradient id="paint0_linear" x1="1418.14" y1="-197.204" x2="423.855" y2="273.666" gradientUnits="userSpaceOnUse">
<stop stop-color="#BC52E3"/>
<stop offset="1" stop-color="#3E16BB"/>
</linearGradient>
</defs>
</svg>
