<svg width="940" height="805" viewBox="0 0 940 805" fill="none" xmlns="http://www.w3.org/2000/svg">
<g filter="url(#filter0_i)">
<path fill-rule="evenodd" clip-rule="evenodd" d="M745.75 -88.6749C841.157 -85.6658 982.37 -75.7652 1051.93 -19.672C1115.36 31.4847 1061.12 108.239 1087.25 179.476C1113.13 250.021 1117.76 359.719 1096.85 431.467C1075.03 506.347 1100.98 587.429 1075.91 667.737C1051.93 744.601 1096.15 795.257 992.882 803.863C886.337 812.742 699.082 769.058 624.414 692.18C556.129 621.876 526.69 411.939 456.406 345.22C384.769 277.218 101.17 221.137 28.677 122.353C-29.7184 42.78 7.29957 -84.6188 83.6797 -134.095C161.23 -184.328 648.635 -91.7378 745.75 -88.6749Z" fill="url(#paint0_linear)"/>
</g>
<defs>
<filter id="filter0_i" x="0" y="-149" width="1110" height="958" filterUnits="userSpaceOnUse" color-interpolation-filters="sRGB">
<feFlood flood-opacity="0" result="BackgroundImageFix"/>
<feBlend mode="normal" in="SourceGraphic" in2="BackgroundImageFix" result="shape"/>
<feColorMatrix in="SourceAlpha" type="matrix" values="0 0 0 0 0 0 0 0 0 0 0 0 0 0 0 0 0 0 127 0" result="hardAlpha"/>
<feOffset dy="4"/>
<feGaussianBlur stdDeviation="15"/>
<feComposite in2="hardAlpha" operator="arithmetic" k2="-1" k3="1"/>
<feColorMatrix type="matrix" values="0 0 0 0 0 0 0 0 0 0 0 0 0 0 0 0 0 0 0.5 0"/>
<feBlend mode="normal" in2="shape" result="effect1_innerShadow"/>
</filter>
<linearGradient id="paint0_linear" x1="410.79" y1="441.512" x2="884.418" y2="-31.8845" gradientUnits="userSpaceOnUse">
<stop stop-color="#3E16BB"/>
<stop offset="1" stop-color="#BC52E3"/>
</linearGradient>
</defs>
</svg>
