<svg xmlns="http://www.w3.org/2000/svg" width="500" height="500" viewBox="0 0 500 500"><rect x="205.7382" y="382.3156" width="93.6171" height="39.961" rx="16.7564" fill="#fff"/><rect x="221.6247" y="430.2379" width="61.844" height="39.961" rx="19.6628" fill="#fff"/><path d="M409.4884,191.7415C409.4884,103.8,337.9414,32.253,250,32.253S90.5116,103.8,90.5116,191.7415c0,67.1085,41.6654,124.6835,100.491,148.1735-.0469.5155-.0625,1.0314-.0625,1.5629v13.6436a17.9754,17.9754,0,0,0,17.9727,17.9727h82.69a17.9754,17.9754,0,0,0,17.9728-17.9727V341.4779a16.4708,16.4708,0,0,0-.0938-1.7663C368.0418,316.1129,409.4884,258.6783,409.4884,191.7415ZM250,319.9727A128.2314,128.2314,0,1,1,378.2315,191.7415,128.3715,128.3715,0,0,1,250,319.9727Z" fill="#fff"/><text transform="translate(223.2843 281.2346)" font-size="261.7882" fill="#fff" font-family="SFRounded-Ultralight, SF Pro Rounded" font-weight="100">i</text></svg>