<svg id="account" xmlns="http://www.w3.org/2000/svg" width="25" height="24" viewBox="0 0 500 500"><defs><style>.cls-1{fill:#8a8988;}.cls-2{fill:#dbd9d9;}</style></defs><title>account_icon_v001</title><g id="account-2" data-name="account"><g id="char"><path class="cls-1" d="M202.77,130.57c0,40.24-24.92,103.61-65.16,103.61S72.45,170.81,72.45,130.57s24.92-65.16,65.16-65.16S202.77,90.34,202.77,130.57Z"/><path class="cls-1" d="M250,281.2c0,62.07-50.32,153.39-112.39,153.39S25.22,343.27,25.22,281.2c0-39.1,19.16-57.27,49.28-65.37a18.19,18.19,0,0,1,18.61,5.8c12.37,14.63,28.18,23.58,44.5,23.58s32.13-9,44.5-23.58a18.18,18.18,0,0,1,18.61-5.8C230.84,223.93,250,242.1,250,281.2Z"/></g><rect class="cls-2" x="250" y="106.29" width="220.23" height="33.72" rx="7"/><rect class="cls-2" x="250" y="167.35" width="220.23" height="33.72" rx="7"/><rect class="cls-2" x="282.19" y="233.14" width="188.04" height="33.72" rx="6.47"/><rect class="cls-2" x="282.19" y="298.92" width="188.04" height="33.72" rx="6.47"/><rect class="cls-2" x="250" y="364.71" width="220.23" height="33.72" rx="7"/></g></svg>