<svg xmlns="http://www.w3.org/2000/svg" width="25" height="24" viewBox="0 0 500 500"><defs><style>.cls-1{fill:#757372;}.cls-2{fill:#8a8988;}.cls-3{fill:#dbd9d9;}.cls-4{fill:none;stroke:#dbd9d9;stroke-miterlimit:10;stroke-width:2px;}</style></defs><title>award_icon_v001</title><g id="award"><path class="cls-1" d="M228.78,276.37,183.32,387.91a4,4,0,0,1-7.63-.92l-5.16-35.29a3,3,0,0,0-4.84-2l-28.36,21.63a4,4,0,0,1-6.1-4.67l37.2-91.27q5.34-2.73,11.66-6.74l7.62-4.82c-.14,20.17,26.74,30.48,39.78,12.88l1.06-1.41Z"/><path class="cls-1" d="M362.67,371.35l-28.36-21.63a3,3,0,0,0-4.84,2L324.31,387a4,4,0,0,1-7.63.92L274.3,284c14.58,9.81,36.9-1.72,33.93-21.8l-.26-1.73,12.79,8c3.73,2.35,7.22,4.37,10.44,6.07l37.57,92.15A4,4,0,0,1,362.67,371.35Z"/><path class="cls-2" d="M354.6,155.37l-7.79-1.74-23.28-5.22c-6-1.36-8.26-6.73-5-11.95l9.83-15.62,7.13-11.33c21.87-34.76,11.39-45.22-23.3-23.23l-6.76,4.28-20.14,12.76c-5.21,3.3-10.59,1.08-12-4.94l-4.1-18-3-13c-9.11-40.05-23.92-40-32.9,0l-1.75,7.79-5.22,23.28c-1.35,6-6.73,8.26-11.95,5L198.85,93.6l-11.33-7.13c-34.76-21.88-45.22-11.39-23.23,23.3l4.28,6.75,12.76,20.15c3.3,5.21,1.08,10.59-4.94,12l-18,4.1-13.05,3c-40,9.11-40,23.91.05,32.9l7.79,1.75,23.28,5.22c6,1.35,8.26,6.73,5,12l-9.83,15.62-7.13,11.33c-21.87,34.75-11.39,45.21,23.3,23.23l6.76-4.28,20.14-12.76c5.21-3.3,10.59-1.08,12,4.94l4.1,18,3,13c9.11,40.06,23.92,40,32.9,0l1.75-7.8,5.22-23.27c1.35-6,6.73-8.26,11.95-5l15.62,9.83,11.33,7.12c34.76,21.88,45.22,11.4,23.23-23.3l-4.28-6.75-12.76-20.14c-3.3-5.21-1.08-10.6,4.94-12l18-4.1,13-3C394.7,179.17,394.67,164.36,354.6,155.37ZM250,221.9a53.42,53.42,0,1,1,53.43-53.41A53.42,53.42,0,0,1,250,221.9Z"/><path class="cls-3" d="M342.85,192.18l-1.25-.93-20.17-15a3.22,3.22,0,0,1,.12-5.26l22.14-14.87a21.49,21.49,0,0,0,3.12-2.53c12.72-12.57,2.34-35.86-16.88-33l-1.54.23-24.84,3.68a3.21,3.21,0,0,1-3.63-3.8l5.14-26.18a20.58,20.58,0,0,0,.4-4c.12-17.89-23.7-27-35.27-11.42l-.93,1.25-15,20.17a3.22,3.22,0,0,1-5.26-.12L234.17,78.3a21.49,21.49,0,0,0-2.53-3.12c-12.57-12.72-35.86-2.34-33,16.88l.23,1.54,3.69,24.84a3.22,3.22,0,0,1-3.81,3.63l-26.17-5.14a21.45,21.45,0,0,0-4-.41c-17.88-.12-27,23.71-11.42,35.28l1.25.93,20.17,15a3.21,3.21,0,0,1-.12,5.25l-22.14,14.87a21.54,21.54,0,0,0-3.12,2.54c-12.72,12.57-2.34,35.86,16.88,33l1.54-.23,24.84-3.69a3.22,3.22,0,0,1,3.63,3.81l-5.14,26.17a20.6,20.6,0,0,0-.4,4c-.12,17.88,23.7,27,35.27,11.42l.93-1.25,15-20.18a3.23,3.23,0,0,1,5.26.12l14.87,22.15a21.39,21.39,0,0,0,2.53,3.11c12.57,12.73,35.86,2.34,33-16.87l-.23-1.54-3.69-24.85a3.23,3.23,0,0,1,3.81-3.63l26.17,5.15a21.5,21.5,0,0,0,4,.4C349.31,227.57,358.45,203.75,342.85,192.18ZM250,221.9a53.42,53.42,0,1,1,53.43-53.41A53.42,53.42,0,0,1,250,221.9Z"/><circle class="cls-1" cx="249.2" cy="168.48" r="38.17"/><path class="cls-4" d="M67.29,265.21c-14.89,93.39,31.8,171.92,92.86,203"/><path class="cls-3" d="M86.85,231.1c5.07-15.33,7.37-35.73,3.91-35.86C87.51,194.92,68,216.93,63.47,234c-4.72,16.8,3.35,20,6,19.45C73,252.68,81.63,246.45,86.85,231.1Z"/><path class="cls-3" d="M58.89,269.63c-4.45-11.67-17.1-19.71-20.58-15.87-3.26,3.21-5.4,29.62.94,40.84,6,11.17,14.56,4.75,16.77,1.85C58.63,292.72,63.34,281.25,58.89,269.63Z"/><path class="cls-3" d="M58,321.81C51,312,36.89,307,34.4,311.14c-2.41,3.55,1.39,28.21,10,37.26,8.25,9.07,15.24,1.49,16.77-1.58A27.27,27.27,0,0,0,58,321.81Z"/><path class="cls-3" d="M68.46,369.58c-8.88-7.56-23.75-9.38-25.3-5-1.58,3.74,7.25,25.68,17.45,32.22,9.89,6.62,15.2-1.83,16.08-4.95C77.61,387.85,77.31,377.09,68.46,369.58Z"/><path class="cls-3" d="M87.69,410c-10.15-5.12-25.06-3.76-25.73.59-.81,3.78,12.06,22.34,23.23,26.26,10.91,4,14.49-5,14.76-8.05C100.1,424.93,97.79,415.07,87.69,410Z"/><path class="cls-3" d="M114.07,443.31c-10.82-2.54-25.11,1.95-24.93,6.17-.06,3.7,16,18.34,27.57,19.55,11.34,1.37,13.09-8,12.78-10.89C128.91,454.46,124.84,445.79,114.07,443.31Z"/><path class="cls-3" d="M75,265.67c8.4-14.53,26.92-25.63,28.85-23.13,1.38,2-5.85,23-12.93,35.92-7.33,13-15.43,13.51-17.68,12.07C70.74,289,66.55,280,75,265.67Z"/><path class="cls-3" d="M72.66,315.22c4.83-14.77,19.85-28.05,22.29-26.09,1.85,1.59,0,21.8-3.91,34.78C86.89,337,79.07,339,76.57,338.14,73.83,337.23,67.81,329.82,72.66,315.22Z"/><path class="cls-3" d="M81.42,360.66c1.59-14.39,13.21-29.19,16-27.86,2.16,1.11,4.92,19.63,3.78,32.12C99.9,377.53,92.64,381,90,380.71,87.15,380.45,79.77,374.9,81.42,360.66Z"/><path class="cls-3" d="M98.65,399.13c-1.2-13.53,7.19-29.23,10.2-28.55,2.37.6,8.76,16.75,10,28.34s-5.36,16.51-8,16.79C108,416.09,99.78,412.52,98.65,399.13Z"/><path class="cls-3" d="M122.72,430.81c-3.67-12.27,1.59-28.34,4.66-28.33,2.43,0,11.67,13.33,15,23.7s-2.2,16.44-4.67,17.28C135,444.47,126.3,443,122.72,430.81Z"/><path class="cls-4" d="M431.12,265.21c14.89,93.39-31.8,171.92-92.87,203"/><path class="cls-3" d="M411.55,231.1c-5.06-15.33-7.36-35.73-3.91-35.86,3.26-.32,22.81,21.69,27.3,38.76,4.71,16.8-3.36,20-6,19.45C425.41,252.68,416.78,246.45,411.55,231.1Z"/><path class="cls-3" d="M439.51,269.63C444,258,456.62,249.92,460.1,253.76c3.25,3.21,5.4,29.62-.94,40.84-6,11.17-14.56,4.75-16.78,1.85C439.77,292.72,435.07,281.25,439.51,269.63Z"/><path class="cls-3" d="M440.42,321.81c7-9.82,21.1-14.85,23.59-10.67,2.4,3.55-1.39,28.21-10,37.26-8.25,9.06-15.24,1.49-16.78-1.58A27.31,27.31,0,0,1,440.42,321.81Z"/><path class="cls-3" d="M430,369.58c8.88-7.56,23.75-9.38,25.3-5,1.58,3.74-7.26,25.68-17.45,32.22-9.9,6.62-15.2-1.83-16.08-4.95C420.8,387.85,421.1,377.09,430,369.58Z"/><path class="cls-3" d="M410.72,410c10.14-5.12,25.06-3.76,25.73.59.8,3.78-12.06,22.34-23.24,26.26-10.9,4-14.48-5-14.75-8.05C398.31,424.93,400.62,415.07,410.72,410Z"/><path class="cls-3" d="M384.33,443.31c10.83-2.54,25.12,1.95,24.94,6.17.06,3.7-16,18.34-27.57,19.55-11.34,1.37-13.09-8-12.78-10.89C369.5,454.46,373.56,445.79,384.33,443.31Z"/><path class="cls-3" d="M423.45,265.67c-8.39-14.53-26.91-25.63-28.84-23.13-1.38,2,5.85,23,12.93,35.92,7.33,13,15.43,13.51,17.68,12.07C427.67,289,431.86,280,423.45,265.67Z"/><path class="cls-3" d="M425.74,315.22c-4.82-14.77-19.84-28.05-22.29-26.09-1.84,1.59,0,21.8,3.92,34.78,4.15,13.07,12,15.11,14.47,14.23C424.58,337.23,430.59,329.82,425.74,315.22Z"/><path class="cls-3" d="M417,360.66c-1.6-14.39-13.21-29.19-16-27.86-2.17,1.11-4.93,19.63-3.78,32.12,1.32,12.61,8.58,16.09,11.2,15.79C411.26,380.45,418.64,374.9,417,360.66Z"/><path class="cls-3" d="M399.76,399.13c1.2-13.53-7.19-29.23-10.2-28.55-2.37.6-8.76,16.75-10,28.34s5.36,16.51,8,16.79C390.39,416.09,398.63,412.52,399.76,399.13Z"/><path class="cls-3" d="M375.69,430.81c3.67-12.27-1.59-28.34-4.66-28.33-2.43,0-11.68,13.33-14.95,23.7-3.18,10.53,2.2,16.44,4.67,17.28C363.45,444.47,372.1,443,375.69,430.81Z"/></g></svg>