<svg xmlns="http://www.w3.org/2000/svg" width="25" height="24" viewBox="0 0 500 500"><defs><style>.cls-1{fill:#dbd9d9;}.cls-2{fill:#8a8988;}.cls-3{font-size:72px;fill:#757372;font-family:SFCompactRounded-Ultralight, SF Compact Rounded;font-weight:100;}</style></defs><title>billing_icon_v001</title><g id="billing"><path class="cls-1" d="M360.83,65.41h-214A20.15,20.15,0,0,0,126.7,85.56V355a79.62,79.62,0,0,0,79.61,79.62H360.83A20.15,20.15,0,0,0,381,414.44V85.56A20.15,20.15,0,0,0,360.83,65.41ZM196.68,410.92a47.85,47.85,0,1,1,47.85-47.85A47.84,47.84,0,0,1,196.68,410.92Z"/><rect class="cls-2" x="143.72" y="106.29" width="220.23" height="33.72" rx="7"/><rect class="cls-2" x="143.72" y="167.35" width="220.23" height="33.72" rx="7"/><rect class="cls-2" x="143.72" y="233.14" width="220.23" height="33.72" rx="7"/><rect class="cls-2" x="250" y="298.92" width="113.95" height="33.72" rx="5.04"/><rect class="cls-2" x="275.71" y="364.71" width="88.24" height="33.72" rx="4.43"/><text class="cls-3" transform="translate(175.18 387.89)">$</text></g></svg>