<svg xmlns="http://www.w3.org/2000/svg" width="25" height="24"viewBox="0 0 500 500"><defs><style>.cls-1{fill:#eaeaea;}.cls-2{fill:#fff;}</style></defs><title>book_lm_v002</title><g id="book_lm"><rect class="cls-1" x="46.76" y="80.72" width="406.48" height="360.91" rx="21.42"/><rect class="cls-1" x="219.65" y="425.84" width="63.16" height="31.59" rx="10.92"/><path class="cls-2" d="M240.78,61.16a25.12,25.12,0,0,0,4.39,1.46v365a24.54,24.54,0,0,1-4.39-1.45C228,420.57,207,408.9,197.16,407.9c-26.64-2.71-94.44,13-122.48,19.87-6.23,1.53-12.42-2.52-12.42-8.13V72.21c0-3.76,2.86-7.06,7-8.11C92.78,58.21,168.6,40,197.16,42.89,207,43.89,228,55.57,240.78,61.16Z"/><path class="cls-2" d="M439.57,72.2V419.64c0,5.6-6.2,9.65-12.43,8.12-28-6.92-95.76-22.61-122.37-19.86-9.69,1-30.39,12.63-43,18.22a24.43,24.43,0,0,1-4.47,1.49v-365a24.43,24.43,0,0,0,4.47-1.49c12.62-5.59,33.32-17.22,43-18.23,28.53-3,104.31,15.3,127.77,21.21C436.71,65.15,439.57,68.45,439.57,72.2Z"/><path class="cls-1" d="M423.17,127.33v17.43c0,5.61-5.66,9.66-11.36,8.13C386.23,146,324.39,135.28,300.08,138c-3.13.35-7.52,2-12.41,4.32a6.27,6.27,0,0,1-8.91-5.7v-21a6.26,6.26,0,0,1,3.41-5.59c7-3.57,13.64-6.54,17.91-7,26.06-3,95.24,10.3,116.67,16.21A8.51,8.51,0,0,1,423.17,127.33Z"/><path class="cls-1" d="M423.17,202.06v17.43c0,5.61-5.66,9.66-11.36,8.13-25.58-6.92-87.42-17.61-111.73-14.86-3.13.35-7.52,2-12.41,4.33a6.27,6.27,0,0,1-8.91-5.7v-21a6.27,6.27,0,0,1,3.41-5.59c7-3.57,13.64-6.54,17.91-7,26.06-2.95,95.24,10.3,116.67,16.21A8.51,8.51,0,0,1,423.17,202.06Z"/><path class="cls-1" d="M423.17,276.8v17.43c0,5.61-5.66,9.66-11.36,8.13-25.58-6.92-87.42-17.61-111.73-14.86-3.13.35-7.52,2-12.41,4.32a6.27,6.27,0,0,1-8.91-5.7v-21a6.26,6.26,0,0,1,3.41-5.58c7-3.58,13.64-6.54,17.91-7,26.06-3,95.24,10.3,116.67,16.21A8.51,8.51,0,0,1,423.17,276.8Z"/><path class="cls-1" d="M423.17,351.53V369c0,5.61-5.66,9.66-11.36,8.13-25.58-6.92-87.42-17.61-111.73-14.86-3.13.35-7.52,2-12.41,4.32a6.27,6.27,0,0,1-8.91-5.69v-21a6.26,6.26,0,0,1,3.41-5.59c7-3.57,13.64-6.54,17.91-7,26.06-3,95.24,10.3,116.67,16.21A8.51,8.51,0,0,1,423.17,351.53Z"/><path class="cls-1" d="M80.45,127.33v17.43c0,5.61,5.66,9.66,11.36,8.13C117.39,146,179.23,135.28,203.54,138c3.13.35,7.52,2,12.4,4.32a6.28,6.28,0,0,0,8.92-5.7v-21a6.28,6.28,0,0,0-3.41-5.59c-7-3.57-13.64-6.54-17.91-7-26.06-3-95.24,10.3-116.67,16.21A8.51,8.51,0,0,0,80.45,127.33Z"/><path class="cls-1" d="M80.45,202.06v17.43c0,5.61,5.66,9.66,11.36,8.13,25.58-6.92,87.42-17.61,111.73-14.86,3.13.35,7.52,2,12.4,4.33a6.28,6.28,0,0,0,8.92-5.7v-21a6.29,6.29,0,0,0-3.41-5.59c-7-3.57-13.64-6.54-17.91-7C177.48,174.8,108.3,188.05,86.87,194A8.51,8.51,0,0,0,80.45,202.06Z"/><path class="cls-1" d="M80.45,276.8v17.43c0,5.61,5.66,9.66,11.36,8.13,25.58-6.92,87.42-17.61,111.73-14.86,3.13.35,7.52,2,12.4,4.32a6.28,6.28,0,0,0,8.92-5.7v-21a6.28,6.28,0,0,0-3.41-5.58c-7-3.58-13.64-6.54-17.91-7-26.06-3-95.24,10.3-116.67,16.21A8.51,8.51,0,0,0,80.45,276.8Z"/><path class="cls-1" d="M80.45,351.53V369c0,5.61,5.66,9.66,11.36,8.13,25.58-6.92,87.42-17.61,111.73-14.86,3.13.35,7.52,2,12.4,4.32a6.27,6.27,0,0,0,8.92-5.69v-21a6.28,6.28,0,0,0-3.41-5.59c-7-3.57-13.64-6.54-17.91-7-26.06-3-95.24,10.3-116.67,16.21A8.51,8.51,0,0,0,80.45,351.53Z"/></g></svg>