<svg xmlns="http://www.w3.org/2000/svg" width="25" height="24" viewBox="0 0 500 500"><defs><style>.cls-1{fill:#8a8988;}.cls-2{fill:#dbd9d9;}.cls-3{fill:#757372;}</style></defs><title>book_icon_v001</title><g id="book"><rect class="cls-1" x="45.53" y="84.42" width="406.48" height="360.91" rx="21.42"/><rect class="cls-1" x="218.42" y="429.53" width="63.16" height="31.59" rx="10.92"/><path class="cls-2" d="M239.55,64.85a25.12,25.12,0,0,0,4.39,1.46v365a24.54,24.54,0,0,1-4.39-1.45c-12.77-5.6-33.81-17.27-43.62-18.27-26.64-2.71-94.44,13-122.48,19.87C67.22,433,61,428.94,61,423.33V75.9c0-3.76,2.86-7.06,7-8.11,23.49-5.89,99.31-24.11,127.87-21.21C205.74,47.58,226.78,59.26,239.55,64.85Z"/><path class="cls-2" d="M438.34,75.89V423.33c0,5.6-6.2,9.65-12.43,8.12-28-6.92-95.76-22.61-122.37-19.86-9.69,1-30.39,12.63-43,18.22a24.43,24.43,0,0,1-4.47,1.49V66.3a24.43,24.43,0,0,0,4.47-1.49c12.62-5.59,33.32-17.22,43-18.23,28.53-2.95,104.31,15.3,127.77,21.21C435.48,68.84,438.34,72.14,438.34,75.89Z"/><path class="cls-3" d="M421.94,131v17.43c0,5.61-5.66,9.66-11.36,8.13C385,149.66,323.16,139,298.85,141.72c-3.13.35-7.52,2-12.4,4.33a6.28,6.28,0,0,1-8.92-5.7v-21a6.27,6.27,0,0,1,3.41-5.59c7-3.57,13.64-6.54,17.91-7,26.06-2.95,95.24,10.3,116.67,16.21A8.51,8.51,0,0,1,421.94,131Z"/><path class="cls-3" d="M421.94,205.75v17.43c0,5.61-5.66,9.66-11.36,8.13-25.58-6.92-87.42-17.61-111.73-14.86-3.13.36-7.52,2.05-12.4,4.33a6.28,6.28,0,0,1-8.92-5.7v-21a6.26,6.26,0,0,1,3.41-5.58c7-3.58,13.64-6.54,17.91-7,26.06-2.95,95.24,10.3,116.67,16.21A8.51,8.51,0,0,1,421.94,205.75Z"/><path class="cls-3" d="M421.94,280.49v17.43c0,5.61-5.66,9.66-11.36,8.13-25.58-6.92-87.42-17.61-111.73-14.86-3.13.35-7.52,2-12.4,4.32a6.28,6.28,0,0,1-8.92-5.7v-21a6.26,6.26,0,0,1,3.41-5.59c7-3.57,13.64-6.54,17.91-7,26.06-3,95.24,10.3,116.67,16.21A8.51,8.51,0,0,1,421.94,280.49Z"/><path class="cls-3" d="M421.94,355.22v17.43c0,5.61-5.66,9.66-11.36,8.13-25.58-6.92-87.42-17.61-111.73-14.86-3.13.36-7.52,2.05-12.4,4.33a6.28,6.28,0,0,1-8.92-5.7v-21a6.25,6.25,0,0,1,3.41-5.58c7-3.58,13.64-6.55,17.91-7,26.06-3,95.24,10.3,116.67,16.21A8.51,8.51,0,0,1,421.94,355.22Z"/><path class="cls-3" d="M79.22,131v17.43c0,5.61,5.66,9.66,11.36,8.13C116.16,149.66,178,139,202.31,141.72c3.13.35,7.52,2,12.4,4.33a6.28,6.28,0,0,0,8.92-5.7v-21a6.27,6.27,0,0,0-3.41-5.59c-7-3.57-13.64-6.54-17.91-7-26.06-2.95-95.24,10.3-116.67,16.21A8.51,8.51,0,0,0,79.22,131Z"/><path class="cls-3" d="M79.22,205.75v17.43c0,5.61,5.66,9.66,11.36,8.13,25.58-6.92,87.42-17.61,111.73-14.86,3.13.36,7.52,2.05,12.4,4.33a6.28,6.28,0,0,0,8.92-5.7v-21a6.26,6.26,0,0,0-3.41-5.58c-7-3.58-13.64-6.54-17.91-7-26.06-2.95-95.24,10.3-116.67,16.21A8.51,8.51,0,0,0,79.22,205.75Z"/><path class="cls-3" d="M79.22,280.49v17.43c0,5.61,5.66,9.66,11.36,8.13,25.58-6.92,87.42-17.61,111.73-14.86,3.13.35,7.52,2,12.4,4.32a6.28,6.28,0,0,0,8.92-5.7v-21a6.26,6.26,0,0,0-3.41-5.59c-7-3.57-13.64-6.54-17.91-7-26.06-3-95.24,10.3-116.67,16.21A8.51,8.51,0,0,0,79.22,280.49Z"/><path class="cls-3" d="M79.22,355.22v17.43c0,5.61,5.66,9.66,11.36,8.13,25.58-6.92,87.42-17.61,111.73-14.86,3.13.36,7.52,2.05,12.4,4.33a6.28,6.28,0,0,0,8.92-5.7v-21a6.25,6.25,0,0,0-3.41-5.58c-7-3.58-13.64-6.55-17.91-7-26.06-3-95.24,10.3-116.67,16.21A8.51,8.51,0,0,0,79.22,355.22Z"/><rect class="cls-3" x="241.56" y="262.84" width="16.89" height="65.22" rx="8.44"/></g></svg>