<svg xmlns="http://www.w3.org/2000/svg" width="25" height="24" viewBox="0 0 500 500"><defs><style>.cls-1{fill:#8a8988;}.cls-2{fill:#dbd9d9;}</style></defs><title>business02_icon_v001</title><g id="business_02"><g id="char"><path class="cls-1" d="M321.22,130.57c0,15.41-3.66,34.22-10.44,51.56-1.35,3.49-2.84,6.92-4.46,10.25-11.28,23.33-28.54,41.8-50.26,41.8-22.08,0-39.55-19.08-50.82-43-1.58-3.34-3-6.77-4.36-10.26-6.49-17-10-35.32-10-50.39,0-40.23,24.92-65.16,65.16-65.16S321.22,90.34,321.22,130.57Z"/><path class="cls-1" d="M319,220.71a3.82,3.82,0,0,1,5-3.47c27.34,8.72,44.48,27,44.48,64,0,62.07-50.32,153.39-112.39,153.39S143.67,343.27,143.67,281.2c0-36.52,16.72-54.78,43.47-63.63a3.83,3.83,0,0,1,5,3.66v.05c0,44,44.75,129.67,63.39,129.67,21,0,63.39-85.67,63.39-129.67Z"/></g><path class="cls-2" d="M270.41,329.87c-2.13,2.5-8.88,10.77-14.85,10.77-5.56,0-11.08-7.33-13.33-9.94l10.33-63.4c-4.53-2.42-8.08-9.18-8.08-15.64,0-8.06,3.53-9.58,11.58-9.58s10.58,1.52,10.58,9.58c0,6.64-3.68,13.61-7.88,15.84Z"/></g></svg>