<svg xmlns="http://www.w3.org/2000/svg" width="25" height="24" viewBox="0 0 500 500"><defs><style>.cls-1{fill:#eaeaea;}.cls-2{fill:#fff;}.cls-3{fill:#dbd9d9;}</style></defs><title>business_icon_light_v002</title><g id="business"><path class="cls-1" d="M441.26,327.29H265.32V340.6a14.22,14.22,0,0,1-14.18,14.18h-2.28a14.22,14.22,0,0,1-14.18-14.18V327.29H57.15a14.68,14.68,0,0,1-2.22-.17v70a32.82,32.82,0,0,0,32.72,32.72h324.7a32.82,32.82,0,0,0,32.72-32.72V326.76A13.7,13.7,0,0,1,441.26,327.29Z"/><path class="cls-2" d="M304.76,121.85H195.24a32.45,32.45,0,0,0-32.35,32.35v25.65h16.2V162.41a26.41,26.41,0,0,1,26.33-26.33h89.16a26.41,26.41,0,0,1,26.33,26.33v17.44h16.2V154.2A32.45,32.45,0,0,0,304.76,121.85Z"/><path class="cls-2" d="M455.43,194v105.1a14.22,14.22,0,0,1-10.36,13.64,13.7,13.7,0,0,1-3.81.53H265.32V289.05a14.22,14.22,0,0,0-14.18-14.18h-2.28a14.22,14.22,0,0,0-14.18,14.18v24.24H57.15a14.68,14.68,0,0,1-2.22-.17,14.23,14.23,0,0,1-12-14V194a14.22,14.22,0,0,1,14.18-14.17H441.26A14.21,14.21,0,0,1,455.43,194Z"/><rect class="cls-3" x="241.56" y="282.38" width="16.89" height="65.22" rx="8.44"/></g></svg>