<svg xmlns="http://www.w3.org/2000/svg" width="25" height="24" viewBox="0 0 500 500"><defs><style>.cls-1{fill:#dbd9d9;}.cls-2{fill:#757372;}.cls-3{fill:#8a8988;}</style></defs><title>calendar_icon_v001</title><g id="calendar"><path class="cls-1" d="M47.68,153.83H454.32a6.3,6.3,0,0,1,6.3,6.3V383.59a26.54,26.54,0,0,1-26.54,26.54H67.92a26.54,26.54,0,0,1-26.54-26.54V160.13A6.3,6.3,0,0,1,47.68,153.83Z"/><rect class="cls-2" x="34.54" y="89.87" width="432.91" height="85.03" rx="15.53"/><rect class="cls-3" x="181" y="184.56" width="34.64" height="34.64" rx="7.56"/><rect class="cls-3" x="234.46" y="184.56" width="34.64" height="34.64" rx="7.56"/><rect class="cls-3" x="287.92" y="184.56" width="34.64" height="34.64" rx="7.56"/><rect class="cls-3" x="341.37" y="184.56" width="34.64" height="34.64" rx="7.56"/><rect class="cls-2" x="394.83" y="184.56" width="34.64" height="34.64" rx="7.56"/><rect class="cls-2" x="74.09" y="243.19" width="34.64" height="34.64" rx="7.56"/><rect class="cls-3" x="127.55" y="243.19" width="34.64" height="34.64" rx="7.56"/><rect class="cls-3" x="181" y="243.19" width="34.64" height="34.64" rx="7.56"/><rect class="cls-3" x="234.46" y="243.19" width="34.64" height="34.64" rx="7.56"/><rect class="cls-3" x="287.92" y="243.19" width="34.64" height="34.64" rx="7.56"/><rect class="cls-3" x="341.37" y="243.19" width="34.64" height="34.64" rx="7.56"/><rect class="cls-2" x="394.83" y="243.19" width="34.64" height="34.64" rx="7.56"/><rect class="cls-2" x="74.09" y="301.81" width="34.64" height="34.64" rx="7.56"/><rect class="cls-3" x="127.55" y="301.81" width="34.64" height="34.64" rx="7.56"/><rect class="cls-3" x="181" y="301.81" width="34.64" height="34.64" rx="7.56"/><rect class="cls-3" x="234.46" y="301.81" width="34.64" height="34.64" rx="7.56"/><rect class="cls-3" x="287.92" y="301.81" width="34.64" height="34.64" rx="7.56"/><rect class="cls-3" x="341.37" y="301.81" width="34.64" height="34.64" rx="7.56"/><rect class="cls-2" x="394.83" y="301.81" width="34.64" height="34.64" rx="7.56"/><rect class="cls-2" x="74.09" y="360.43" width="34.64" height="34.64" rx="7.56"/><rect class="cls-3" x="127.55" y="360.43" width="34.64" height="34.64" rx="7.56"/><rect class="cls-3" x="181" y="360.43" width="34.64" height="34.64" rx="7.56"/><rect class="cls-3" x="234.46" y="360.43" width="34.64" height="34.64" rx="7.56"/><rect class="cls-3" x="287.92" y="360.43" width="34.64" height="34.64" rx="7.56"/><rect class="cls-3" x="341.37" y="360.43" width="34.64" height="34.64" rx="7.56"/></g></svg>