<svg xmlns="http://www.w3.org/2000/svg" width="25" height="24" viewBox="0 0 500 500"><defs><style>.cls-1{fill:#757372;}</style></defs><title>chat_lm_v002</title><g id="chat_lm"><path class="cls-1" d="M459.09,120.62a550.23,550.23,0,0,1-7.21,201.78c-1.23,5.44-6.14,11.45-10,16.58,11.81-63.32,11.81-130.67.63-198.63-2-19.42-21.12-38.7-41-42.13C292.07,77.76,189.28,77.07,79.47,101c6.92-7.14,10.78-12.57,19.87-14.79C210.85,59.55,311.22,58.49,421.88,83,439.32,87.05,456.62,104.28,459.09,120.62Z"/><path class="cls-1" d="M433.82,140.77A897,897,0,0,1,438,342.46c-1.55,16.46-17.51,32-34.9,34.25a1349.17,1349.17,0,0,1-141.94,10Q249.73,407.51,239,428.11q-10.68-20.57-22.14-41.45a1349.17,1349.17,0,0,1-141.94-10c-17.39-2.26-33.36-17.79-34.9-34.25a897,897,0,0,1,4.16-201.69c2.24-16.39,18.59-32.55,35.63-35.49,108.06-17.85,210.32-17.85,318.38,0C415.23,108.22,431.58,124.37,433.82,140.77Z"/></g></svg>