<svg xmlns="http://www.w3.org/2000/svg" width="25" height="24" viewBox="0 0 500 500"><defs><style>.cls-1{fill:#757372;}.cls-2{fill:#8a8988;}.cls-3{fill:#dbd9d9;}</style></defs><title>community_icon_v001</title><g id="community"><g id="char"><path class="cls-1" d="M317,95.55c0,25.8-16,66.43-41.77,66.43s-41.78-40.63-41.78-66.43,16-41.77,41.78-41.77S317,69.75,317,95.55Z"/><path class="cls-1" d="M347.29,192.12c0,39.79-32.26,98.34-72.05,98.34s-72.06-58.55-72.06-98.34c0-25.07,12.29-36.72,31.59-41.91a11.67,11.67,0,0,1,11.94,3.72c7.93,9.38,18.06,15.12,28.53,15.12s20.59-5.74,28.53-15.12a11.66,11.66,0,0,1,11.93-3.72C335,155.4,347.29,167.05,347.29,192.12Z"/></g><g id="char-2" data-name="char"><path class="cls-2" d="M203.92,152.69c0,40.24-24.92,103.61-65.16,103.61S73.6,192.93,73.6,152.69s24.92-65.16,65.16-65.16S203.92,112.45,203.92,152.69Z"/><path class="cls-2" d="M251.15,303.32c0,62.07-50.32,153.39-112.39,153.39S26.37,365.39,26.37,303.32c0-39.1,19.16-57.28,49.28-65.37a18.2,18.2,0,0,1,18.61,5.79c12.37,14.63,28.18,23.59,44.5,23.59s32.13-9,44.5-23.59A18.2,18.2,0,0,1,201.87,238C232,246,251.15,264.22,251.15,303.32Z"/></g><g id="char-3" data-name="char"><path class="cls-3" d="M437.83,158.67c0,31.48-19.51,81.07-51,81.07s-51-49.59-51-81.07,19.51-51,51-51S437.83,127.18,437.83,158.67Z"/><path class="cls-3" d="M474.78,276.53c0,48.57-39.37,120-87.94,120s-87.95-71.46-87.95-120c0-30.59,15-44.81,38.56-51.15A14.24,14.24,0,0,1,352,229.91c9.68,11.45,22.05,18.46,34.83,18.46s25.14-7,34.82-18.46a14.24,14.24,0,0,1,14.56-4.53C459.79,231.72,474.78,245.94,474.78,276.53Z"/></g></g></svg>