<svg xmlns="http://www.w3.org/2000/svg" width="25" height="24" viewBox="0 0 500 500"><defs><style>.cls-1{fill:#757372;}.cls-2{fill:#8a8988;}.cls-3{fill:#dbd9d9;}</style></defs><title>community_icon_dark_v002</title><g id="community"><g id="char"><path class="cls-1" d="M317,96.45c0,25.8-16,66.42-41.77,66.42s-41.78-40.62-41.78-66.42,16-41.78,41.78-41.78S317,70.65,317,96.45Z"/><path class="cls-1" d="M347.29,193c0,39.8-32.26,98.34-72.05,98.34S203.18,232.81,203.18,193c0-25.06,12.29-36.71,31.59-41.9a11.69,11.69,0,0,1,11.94,3.71c7.93,9.38,18.06,15.12,28.53,15.12s20.59-5.74,28.53-15.12a11.67,11.67,0,0,1,11.93-3.71C335,156.3,347.29,168,347.29,193Z"/></g><g id="char-2" data-name="char"><path class="cls-2" d="M203.92,153.59c0,40.24-24.92,103.6-65.16,103.6S73.6,193.83,73.6,153.59s24.92-65.16,65.16-65.16S203.92,113.35,203.92,153.59Z"/><path class="cls-2" d="M251.15,304.21c0,62.07-50.32,153.39-112.39,153.39S26.37,366.28,26.37,304.21c0-39.1,19.16-57.27,49.28-65.37a18.22,18.22,0,0,1,18.61,5.8c12.37,14.63,28.18,23.59,44.5,23.59s32.13-9,44.5-23.59a18.22,18.22,0,0,1,18.61-5.8C232,246.94,251.15,265.11,251.15,304.21Z"/></g><g id="char-3" data-name="char"><path class="cls-3" d="M437.83,159.56c0,31.49-19.51,81.07-51,81.07s-51-49.58-51-81.07,19.51-51,51-51S437.83,128.07,437.83,159.56Z"/><path class="cls-3" d="M474.78,277.43c0,48.57-39.37,120-87.94,120s-87.95-71.46-87.95-120c0-30.6,15-44.82,38.56-51.15A14.22,14.22,0,0,1,352,230.81c9.68,11.45,22.05,18.46,34.83,18.46s25.14-7,34.82-18.46a14.22,14.22,0,0,1,14.56-4.53C459.79,232.61,474.78,246.83,474.78,277.43Z"/></g></g></svg>