<svg xmlns="http://www.w3.org/2000/svg" width="25" height="24" viewBox="0 0 500 500"><defs><style>.cls-1{fill:#fff;}.cls-2{fill:#eaeaea;}.cls-3{fill:#dbd9d9;}</style></defs><title>community_icon_dark_1_v002</title><g id="community"><g id="char"><path class="cls-1" d="M317,115.1c0,25.8-16,66.42-41.77,66.42s-41.78-40.62-41.78-66.42,16-41.78,41.78-41.78S317,89.3,317,115.1Z"/><path class="cls-1" d="M347.29,211.67c0,39.79-32.26,98.34-72.05,98.34s-72.06-58.55-72.06-98.34c0-25.07,12.29-36.72,31.59-41.91a11.69,11.69,0,0,1,11.94,3.71c7.93,9.38,18.06,15.13,28.53,15.13s20.59-5.75,28.53-15.13a11.67,11.67,0,0,1,11.93-3.71C335,175,347.29,186.6,347.29,211.67Z"/></g><g id="char-2" data-name="char"><path class="cls-2" d="M203.92,172.24c0,40.24-24.92,103.61-65.16,103.61S73.6,212.48,73.6,172.24s24.92-65.16,65.16-65.16S203.92,132,203.92,172.24Z"/><path class="cls-2" d="M251.15,322.86c0,62.07-50.32,153.39-112.39,153.39S26.37,384.93,26.37,322.86c0-39.09,19.16-57.27,49.28-65.36a18.2,18.2,0,0,1,18.61,5.79c12.37,14.63,28.18,23.59,44.5,23.59s32.13-9,44.5-23.59a18.2,18.2,0,0,1,18.61-5.79C232,265.59,251.15,283.77,251.15,322.86Z"/></g><g id="char-3" data-name="char"><path class="cls-3" d="M437.83,178.21c0,31.49-19.51,81.08-51,81.08s-51-49.59-51-81.08,19.51-51,51-51S437.83,146.72,437.83,178.21Z"/><path class="cls-3" d="M474.78,296.08c0,48.57-39.37,120-87.94,120s-87.95-71.46-87.95-120c0-30.6,15-44.82,38.56-51.15A14.24,14.24,0,0,1,352,249.46c9.68,11.45,22.05,18.46,34.83,18.46s25.14-7,34.82-18.46a14.24,14.24,0,0,1,14.56-4.53C459.79,251.26,474.78,265.48,474.78,296.08Z"/></g></g></svg>