<svg xmlns="http://www.w3.org/2000/svg" width="25" height="24" viewBox="0 0 500 500"><defs><style>.cls-1{fill:#fff;}.cls-2{fill:#dbd9d9;}</style></defs><title>controller_dm_v002</title><g id="controller_dm"><path class="cls-1" d="M485.59,252a96.64,96.64,0,0,1-141.2,86.45,86.37,86.37,0,0,0-39.9-10.07h-109a86.37,86.37,0,0,0-39.9,10.07,96.62,96.62,0,1,1-49.15-182.22c1.51-.07,3-.11,4.56-.11H387.77C441.05,156.14,485.2,198.75,485.59,252Z"/><path class="cls-1" d="M63.34,178.14l41.93-12h59.24v-10a5.5,5.5,0,0,0-5.5-5.5H121.62a117.33,117.33,0,0,0-32.42,4.57l-20.69,5.95A7.14,7.14,0,0,0,63.34,168Z"/><path class="cls-1" d="M437.75,178.14l-41.93-12H336.58v-10a5.5,5.5,0,0,1,5.5-5.5h37.39a117.38,117.38,0,0,1,32.42,4.57l20.69,5.95a7.14,7.14,0,0,1,5.17,6.86Z"/><circle class="cls-2" cx="388.48" cy="253.19" r="88.1"/><circle class="cls-1" cx="394.52" cy="216.1" r="18.23"/><circle class="cls-1" cx="346.58" cy="249.82" r="18.23"/><circle class="cls-1" cx="439.18" cy="251.19" r="18.23"/><circle class="cls-1" cx="391.24" cy="284.91" r="18.23"/><rect class="cls-2" x="194.84" y="255.31" width="39.28" height="13.3" rx="6.65" transform="translate(-110.97 168.67) rotate(-34.7)"/><rect class="cls-2" x="245.88" y="255.31" width="39.28" height="13.3" rx="6.65" transform="translate(-101.9 197.72) rotate(-34.7)"/><circle class="cls-2" cx="110.88" cy="249.82" r="69.34"/><path class="cls-1" d="M151.43,245v9.62a10,10,0,0,1-10,10H125.68v15.74a10,10,0,0,1-10,10h-9.62a10,10,0,0,1-10-10V264.64H80.32a10,10,0,0,1-10-10V245a10,10,0,0,1,10-10H96.06V219.27a10,10,0,0,1,10-10h9.62a10,10,0,0,1,10,10V235h15.75A10,10,0,0,1,151.43,245Z"/></g></svg>