<svg xmlns="http://www.w3.org/2000/svg" width="25" height="24" viewBox="0 0 500 500"><defs><style>.cls-1{fill:#757372;}.cls-2{fill:#8a8988;}</style></defs><title>controller_lm_v002</title><g id="controller_lm"><path class="cls-1" d="M485.59,249.28a96.64,96.64,0,0,1-141.2,86.44,86.37,86.37,0,0,0-39.9-10.07h-109a86.37,86.37,0,0,0-39.9,10.07A96.62,96.62,0,1,1,106.45,153.5c1.51-.07,3-.11,4.56-.11H387.77C441.05,153.39,485.2,196,485.59,249.28Z"/><path class="cls-1" d="M63.34,175.39l41.93-12h59.24v-10a5.49,5.49,0,0,0-5.5-5.49H121.62a117.33,117.33,0,0,0-32.42,4.57l-20.69,5.94a7.15,7.15,0,0,0-5.17,6.87Z"/><path class="cls-1" d="M437.75,175.39l-41.93-12H336.58v-10a5.49,5.49,0,0,1,5.5-5.49h37.39a117.38,117.38,0,0,1,32.42,4.57l20.69,5.94a7.15,7.15,0,0,1,5.17,6.87Z"/><circle class="cls-2" cx="388.48" cy="250.44" r="88.1"/><circle class="cls-1" cx="394.52" cy="213.35" r="18.23"/><circle class="cls-1" cx="346.58" cy="247.07" r="18.23"/><circle class="cls-1" cx="439.18" cy="248.44" r="18.23"/><circle class="cls-1" cx="391.24" cy="282.16" r="18.23"/><rect class="cls-2" x="194.84" y="252.56" width="39.28" height="13.3" rx="6.65" transform="translate(-109.41 168.18) rotate(-34.7)"/><rect class="cls-2" x="245.88" y="252.56" width="39.28" height="13.3" rx="6.65" transform="translate(-100.33 197.23) rotate(-34.7)"/><circle class="cls-2" cx="110.88" cy="247.07" r="69.34"/><path class="cls-1" d="M151.43,242.27v9.62a10,10,0,0,1-10,10H125.68v15.74a10,10,0,0,1-10,10h-9.62a10,10,0,0,1-10-10V261.89H80.32a10,10,0,0,1-10-10v-9.62a10,10,0,0,1,10-10H96.06V216.52a10,10,0,0,1,10-10h9.62a10,10,0,0,1,10,10v15.75h15.75A10,10,0,0,1,151.43,242.27Z"/></g></svg>