<svg xmlns="http://www.w3.org/2000/svg" xmlns:xlink="http://www.w3.org/1999/xlink" width="254" height="254" viewBox="0 0 254 254"><defs><radialGradient id="a" cx="0.185" cy="0.89" r="1.357" gradientTransform="translate(-0.542 0.4) rotate(-43.543)" gradientUnits="objectBoundingBox"><stop offset="0" stop-color="#ad4bde"/><stop offset="1" stop-color="#242424"/></radialGradient></defs><g transform="translate(-1173 -1906)"><g transform="translate(1173 1906)" stroke="#fff" stroke-width="5" fill="url(#a)"><circle cx="127" cy="127" r="127" stroke="none"/><circle cx="127" cy="127" r="124.5" fill="none"/></g><g transform="translate(1246.111 1944.485)"><path d="M253.367,116.178a71.037,71.037,0,0,1-5.005,24.719c-.647,1.673-1.361,3.318-2.138,4.914-5.408,11.185-13.683,20.04-24.1,20.04-10.586,0-18.961-9.147-24.364-20.615-.757-1.6-1.438-3.246-2.09-4.919a70.8,70.8,0,0,1-4.794-24.158c0-19.287,11.947-31.239,31.239-31.239S253.367,96.891,253.367,116.178Z" transform="translate(-168.247 -84.92)" fill="#fff"/><path d="M227.727,238.356a1.831,1.831,0,0,1,2.4-1.664c13.107,4.181,21.325,12.945,21.325,30.683,0,29.758-24.124,73.538-53.882,73.538s-53.9-43.8-53.9-73.557c0-17.513,8.016-26.267,20.84-30.506a1.831,1.831,0,0,1,2.4,1.75v.029c0,21.094,21.454,62.166,30.391,62.166,10.068,0,30.391-41.072,30.391-62.166Z" transform="translate(-143.67 -163.883)" fill="#fff"/><path d="M255.74,303.718c-1.021,1.2-4.257,5.164-7.12,5.164-2.665,0-5.312-3.514-6.391-4.766l4.952-30.4c-2.172-1.16-3.873-4.4-3.873-7.5,0-3.864,1.692-4.593,5.551-4.593s5.072.729,5.072,4.593c0,3.183-1.764,6.525-3.778,7.594Z" transform="translate(-194.978 -176.912)" fill="#dbd9d9"/></g></g></svg>