<svg xmlns="http://www.w3.org/2000/svg" width="500" height="500" viewBox="0 0 500 500"><title>graphics_dm_v003</title><path d="M392.23,58.62H107.77a49.1558,49.1558,0,0,0-49.15,49.15V392.23a49.1558,49.1558,0,0,0,49.15,49.15H392.23a49.1558,49.1558,0,0,0,49.15-49.15V107.77A49.1558,49.1558,0,0,0,392.23,58.62ZM290.02,358.37s-82.03,15.01-128.26,64.07L88.43,353.35c46.24-49.06,56.34-131.84,56.34-131.84C234.88,241.55,387.08,92.66,387.08,92.66l6.78,6.39L241.26,261a29.9519,29.9519,0,1,0,3.61,3.4l152.6-161.95,6.77,6.38S264.67,269.62,290.02,358.37Z" fill="#fff"/></svg>