<svg xmlns="http://www.w3.org/2000/svg" width="25" height="24" viewBox="0 0 500 500"><defs><style>.cls-1,.cls-2{font-size:298.23px;font-family:SFCompactRounded-Ultralight, SF Compact Rounded;font-weight:100;}.cls-1{fill:#757372;}.cls-2{fill:#fff;}.cls-3{fill:none;stroke:#dbd9d9;stroke-miterlimit:10;stroke-width:60px;}.cls-4{fill:#eaeaea;}</style></defs><title>help_light_v002</title><g id="help"><text class="cls-1" transform="translate(177.55 -165.2)">?</text><text class="cls-2" transform="translate(177.55 353.9)">?</text><circle class="cls-3" cx="250" cy="250" r="185"/><path class="cls-4" d="M357.15,400.48a56.65,56.65,0,0,0-15.58-24.83,155.5,155.5,0,0,1-184.4-.93,56.9,56.9,0,0,0,20.6,96.13,231.65,231.65,0,0,0,142.08.75l.3-.1A56.89,56.89,0,0,0,357.15,400.48ZM471.55,180l-.07-.2a56.9,56.9,0,0,0-95.92-21.52,155.52,155.52,0,0,1-.88,184.59,56.89,56.89,0,0,0,96.14-20.58,231.55,231.55,0,0,0,.78-142.14l0-.13Zm-346.3-22.8a56.9,56.9,0,0,0-96.12,20.65,231.51,231.51,0,0,0-.76,141.88l0,.12a56.91,56.91,0,0,0,96,21.76,155.51,155.51,0,0,1,.87-184.41ZM180,28.44l-.1,0a56.92,56.92,0,0,0-21.58,95.94,155.53,155.53,0,0,1,184.42.81A56.93,56.93,0,0,0,322.07,29.1a231.63,231.63,0,0,0-141.92-.7l-.11,0Z"/></g></svg>