<svg xmlns="http://www.w3.org/2000/svg" width="25" height="24" viewBox="0 0 500 500"><defs><style>.cls-1{font-size:298.23px;fill:#757372;font-family:SFCompactRounded-Ultralight, SF Compact Rounded;font-weight:100;}.cls-2{fill:none;stroke:#dbd9d9;stroke-miterlimit:10;stroke-width:60px;}.cls-3{fill:#8a8988;}</style></defs><title>help_dark_v002</title><g id="help"><text class="cls-1" transform="translate(177.55 354.8)">?</text><circle class="cls-2" cx="250" cy="250.89" r="185"/><path class="cls-3" d="M357.15,401.38a56.59,56.59,0,0,0-15.58-24.83,155.48,155.48,0,0,1-184.4-.94,56.9,56.9,0,0,0,20.6,96.13,231.65,231.65,0,0,0,142.08.75l.3-.1A56.88,56.88,0,0,0,357.15,401.38Zm114.4-220.47-.07-.21a56.9,56.9,0,0,0-95.92-21.51,155.5,155.5,0,0,1-.88,184.58,56.89,56.89,0,0,0,96.14-20.58,231.55,231.55,0,0,0,.78-142.14l0-.12ZM125.25,158.1a56.9,56.9,0,0,0-96.12,20.65,231.55,231.55,0,0,0-.76,141.89l0,.12a56.93,56.93,0,0,0,96,21.76,155.53,155.53,0,0,1,.87-184.42ZM180,29.34l-.1,0a56.91,56.91,0,0,0-21.58,95.93,155.53,155.53,0,0,1,184.42.81A56.93,56.93,0,0,0,322.07,30a231.73,231.73,0,0,0-141.92-.69l-.11,0Z"/></g></svg>