<svg xmlns="http://www.w3.org/2000/svg" width="878.6" height="621.272" viewBox="0 0 878.6 621.272"><g transform="translate(-2736 -10019)"><g transform="translate(2736 10019)" fill="none" stroke="#fff" stroke-width="10"><rect width="878.6" height="522.045" rx="10" stroke="none"/><rect x="5" y="5" width="868.6" height="512.045" rx="5" fill="none"/></g><path d="M144.389,102.23c-11.95.068-91.8.493-122.387-.009-33.1-.546-19.032-9.788-19.032-9.788L30.05,65.48S42.157,1.46,41.159.025C43.8.336,126.01.07,142.884.012V0l1.5.005,1.5-.005V.012c16.874.058,99.088.324,101.724.013-1,1.435,11.109,65.455,11.109,65.455l27.08,26.953s14.067,9.242-19.031,9.788c-11.032.181-28.478.241-46.831.241C187.417,102.462,152.028,102.273,144.389,102.23ZM247.668,0c.029.008.011.016-.051.023A.045.045,0,0,1,247.668,0ZM41.108,0a.045.045,0,0,1,.051.023C41.1.017,41.079.01,41.108,0Z" transform="translate(3032.416 10537.81)" fill="#fff"/></g></svg>