<svg xmlns="http://www.w3.org/2000/svg" width="710" height="354" viewBox="0 0 710 354"><g transform="translate(-1389 2911) rotate(-90)"><path d="M0,0H162a0,0,0,0,1,0,0V0a26,26,0,0,1-26,26H26A26,26,0,0,1,0,0V0A0,0,0,0,1,0,0Z" transform="translate(2653 1407)" fill="#fff"/><rect width="6" height="74" rx="3" transform="translate(2905 1538)" fill="#fff"/><rect width="6" height="48" rx="3" transform="translate(2558 1581)" fill="#fff"/><rect width="6" height="48" rx="3" transform="translate(2558 1522)" fill="#fff"/><rect width="7" height="27" rx="3.5" transform="translate(2557 1475)" fill="#fff"/><g transform="translate(2560 1389)" fill="none" stroke="#fff" stroke-width="20"><rect width="348" height="710" rx="50" stroke="none"/><rect x="10" y="10" width="328" height="690" rx="40" fill="none"/></g></g></svg>