<svg xmlns="http://www.w3.org/2000/svg" width="25" height="24" viewBox="0 0 500 500"><defs><style>.cls-1{fill:#eaeaea;}.cls-2{fill:#fff;}.cls-3{fill:#dbd9d9;}</style></defs><title>learner02_icon_light_v002</title><g id="learner02"><path class="cls-1" d="M372.88,312.26V415.63A12.45,12.45,0,0,1,364,427.55c-18.19,5.48-62.1,17-110.2,17-45.74,0-91.25-11.63-110-17.07a12.47,12.47,0,0,1-9-12V312.26l107.84,49.91a26.67,26.67,0,0,0,22.41,0Z"/><path class="cls-2" d="M474.06,245.09,265,341.84a26.67,26.67,0,0,1-22.41,0l-209-96.75a6.86,6.86,0,0,1,0-12.45l209-96.75a26.67,26.67,0,0,1,22.41,0l209,96.75A6.86,6.86,0,0,1,474.06,245.09Z"/><path class="cls-3" d="M408.91,295.46v97.17a7.63,7.63,0,0,1-15.26,0v-90.1Z"/></g></svg>