<svg xmlns="http://www.w3.org/2000/svg" xmlns:xlink="http://www.w3.org/1999/xlink" width="254" height="254" viewBox="0 0 254 254"><defs><radialGradient id="a" cx="0.185" cy="0.89" r="1.357" gradientTransform="translate(-0.542 0.4) rotate(-43.543)" gradientUnits="objectBoundingBox"><stop offset="0" stop-color="#f89b29"/><stop offset="1" stop-color="#7c4e15"/></radialGradient></defs><g transform="translate(-491 -1402)"><g transform="translate(491 1402)" stroke="#fff" stroke-width="5" fill="url(#a)"><circle cx="127" cy="127" r="127" stroke="none"/><circle cx="127" cy="127" r="124.5" fill="none"/></g><g transform="translate(521.4 1461.972)"><path d="M237.381,273.28v44.539a5.364,5.364,0,0,1-3.826,5.136c-7.838,2.361-26.757,7.325-47.482,7.325-19.708,0-39.317-5.011-47.4-7.355a5.373,5.373,0,0,1-3.878-5.17V273.28l46.465,21.5a11.491,11.491,0,0,0,9.656,0Z" transform="translate(-89.478 -196.224)" fill="#eaeaea"/><path d="M221.111,142.556l-90.077,41.687a11.491,11.491,0,0,1-9.656,0L31.326,142.556a2.956,2.956,0,0,1,0-5.364l90.052-41.687a11.491,11.491,0,0,1,9.656,0l90.052,41.687a2.956,2.956,0,0,1,.026,5.364Z" transform="translate(-29.613 -94.442)" fill="#fff"/><path d="M400.225,256.48v41.868a3.288,3.288,0,0,1-6.575,0V259.526Z" transform="translate(-236.797 -186.663)" fill="#dbd9d9"/></g></g></svg>