<svg xmlns="http://www.w3.org/2000/svg" width="25" height="24" viewBox="0 0 500 500"><defs><style>.cls-1{fill:#8a8988;}.cls-2{fill:#757372;}.cls-3{fill:#dbd9d9;}</style></defs><title>learner02_icon_dark_v002</title><g id="learner02"><path class="cls-1" d="M372.88,293.61V397A12.45,12.45,0,0,1,364,408.9c-18.19,5.48-62.1,17-110.2,17-45.74,0-91.25-11.63-110-17.07a12.45,12.45,0,0,1-9-12V293.61l107.84,49.91a26.67,26.67,0,0,0,22.41,0Z"/><path class="cls-2" d="M474.06,226.44,265,323.19a26.67,26.67,0,0,1-22.41,0l-209-96.75a6.86,6.86,0,0,1,0-12.45l209-96.75a26.67,26.67,0,0,1,22.41,0l209,96.75A6.86,6.86,0,0,1,474.06,226.44Z"/><path class="cls-3" d="M408.91,276.8V374a7.63,7.63,0,0,1-15.26,0V283.87Z"/></g></svg>