<svg xmlns="http://www.w3.org/2000/svg" xmlns:xlink="http://www.w3.org/1999/xlink" width="254" height="254" viewBox="0 0 254 254"><defs><radialGradient id="a" cx="0.185" cy="0.89" r="1.357" gradientTransform="translate(-0.542 0.4) rotate(-43.543)" gradientUnits="objectBoundingBox"><stop offset="0" stop-color="#f51d7e"/><stop offset="1" stop-color="#242424"/></radialGradient></defs><g transform="translate(-921 -1782)"><g transform="translate(921 1782)" stroke="#fff" stroke-width="5" fill="url(#a)"><circle cx="127" cy="127" r="127" stroke="none"/><circle cx="127" cy="127" r="124.5" fill="none"/></g><g transform="translate(953.305 1824.333)"><g transform="translate(74.305)"><path d="M268.562,90.878c0,10.843-6.724,27.913-17.554,27.913S233.45,101.721,233.45,90.878s6.724-17.558,17.558-17.558S268.562,80.036,268.562,90.878Z" transform="translate(-220.729 -73.32)" fill="#fff"/><path d="M263.743,187.139c0,16.722-13.557,41.328-30.279,41.328s-30.284-24.606-30.284-41.328c0-10.536,5.165-15.432,13.276-17.613a4.913,4.913,0,0,1,5.018,1.559c3.333,3.942,7.59,6.359,11.99,6.359s8.653-2.417,11.99-6.359a4.9,4.9,0,0,1,5.013-1.559C258.578,171.729,263.743,176.6,263.743,187.139Z" transform="translate(-203.18 -128.997)" fill="#fff"/></g><g transform="translate(0 14.188)"><path d="M128.368,134.464c0,16.911-10.473,43.543-27.384,43.543S73.6,151.375,73.6,134.464s10.473-27.384,27.384-27.384S128.368,117.553,128.368,134.464Z" transform="translate(-53.751 -107.08)" fill="#eaeaea"/><path d="M120.835,284.6c0,26.085-21.147,64.463-47.232,64.463S26.37,310.688,26.37,284.6c0-16.428,8.052-24.068,20.71-27.468a7.649,7.649,0,0,1,7.821,2.433c5.2,6.148,11.843,9.914,18.7,9.914s13.5-3.782,18.7-9.914a7.649,7.649,0,0,1,7.821-2.433C112.787,260.536,120.835,268.176,120.835,284.6Z" transform="translate(-26.37 -193.921)" fill="#eaeaea"/></g><g transform="translate(114.528 22.648)"><path d="M378.7,148.643c0,13.234-8.2,34.074-21.433,34.074s-21.433-20.84-21.433-34.074,8.2-21.433,21.433-21.433S378.7,135.409,378.7,148.643Z" transform="translate(-320.306 -127.21)" fill="#dbd9d9"/><path d="M372.809,266.141c0,20.412-16.545,50.43-36.957,50.43s-36.961-30.031-36.961-50.43c0-12.86,6.3-18.836,16.205-21.5a5.984,5.984,0,0,1,6.115,1.9c4.068,4.812,9.267,7.758,14.638,7.758s10.565-2.942,14.633-7.758a5.985,5.985,0,0,1,6.119-1.9C366.509,247.305,372.809,253.281,372.809,266.141Z" transform="translate(-298.89 -195.173)" fill="#dbd9d9"/></g></g></g></svg>