<svg xmlns="http://www.w3.org/2000/svg" width="25" height="24" width="25" height="24" viewBox="0 0 500 500"><defs><style>.cls-1{fill:none;stroke:#757373;stroke-linecap:round;stroke-miterlimit:10;stroke-width:43.59px;}.cls-2{fill:#757373;}</style></defs><title>update_dark_v002</title><g id="update"><path class="cls-1" d="M135.5,138.76c27.57-31,69.31-49.57,116-49.57,83,0,150.31,58.58,150.31,141.6"/><path class="cls-2" d="M353.32,210.69h97A14.12,14.12,0,0,1,463,231.12l-48.52,97a14.12,14.12,0,0,1-25.26,0l-48.52-97A14.12,14.12,0,0,1,353.32,210.69Z"/><path class="cls-1" d="M364.5,363c-27.57,31-69.31,49.57-116,49.57-83,0-150.31-58.58-150.31-141.6"/><path class="cls-2" d="M146.68,291.1h-97A14.13,14.13,0,0,1,37,270.66l48.52-97a14.12,14.12,0,0,1,25.26,0l48.52,97A14.13,14.13,0,0,1,146.68,291.1Z"/></g></svg>