<svg xmlns="http://www.w3.org/2000/svg" width="25" height="24" viewBox="0 0 500 500"><defs><style>.cls-1{fill:none;stroke:#fff;stroke-linecap:round;stroke-miterlimit:10;stroke-width:43.59px;}.cls-2{fill:#fff;}</style></defs><title>update_light_v002</title><g id="update"><path class="cls-1" d="M135.5,137.86c27.57-31,69.31-49.56,116-49.56,83,0,150.31,58.58,150.31,141.6"/><path class="cls-2" d="M353.32,209.79h97A14.13,14.13,0,0,1,463,230.23l-48.52,97a14.12,14.12,0,0,1-25.26,0l-48.52-97A14.13,14.13,0,0,1,353.32,209.79Z"/><path class="cls-1" d="M364.5,362.14c-27.57,31-69.31,49.56-116,49.56-83,0-150.31-58.58-150.31-141.6"/><path class="cls-2" d="M146.68,290.21h-97A14.13,14.13,0,0,1,37,269.77l48.52-97a14.12,14.12,0,0,1,25.26,0l48.52,97A14.13,14.13,0,0,1,146.68,290.21Z"/></g></svg>